<svg xmlns="http://www.w3.org/2000/svg" height="40" viewBox="0 -960 960 960" width="40"><path d="M189.867-131.833q-24.2 0-41.034-16.9Q132-165.632 132-189.774v-73.393L286.667-400.5v268.667h-96.8Zm135.466 0V-286.5h309.334v154.667H325.333Zm348 0V-448.9L508.167-595.833l117-103.167 183.5 163.169q9.5 8.88 14.416 19.987Q828-504.738 828-492.183v302.282q0 24.151-16.917 41.109-16.916 16.959-41.083 16.959h-96.667ZM132-315.333v-177.113q0-12.342 5-23.865 5-11.522 14.333-19.522l290-257.334q8-7.5 18.177-10.916Q469.688-807.5 480-807.5q10.312 0 20.49 3.417 10.177 3.416 18.177 10.916L596-724.333l-464 409Z"/></svg>