<svg xmlns="http://www.w3.org/2000/svg" height="40" viewBox="0 -960 960 960" width="40"><path d="M241.773-81.833V-252.59q-57.273-51.884-88.606-121.124-31.334-69.241-31.334-146.189 0-149.416 104.459-254.007Q330.751-878.5 479.978-878.5q124.355 0 220.37 73.279 96.015 73.278 125.152 190.388l54 213.667q4 15.193-5.391 27.263-9.391 12.07-25.442 12.07H758.5v136.667q0 26.604-18.521 44.968-18.52 18.365-44.812 18.365H598.5v80H241.773ZM480-320q17.333 0 28.667-11.5Q520-343 520-360t-11.5-28.5Q497-400 480-400t-28.5 11.5Q440-377 440-360t11.333 28.5Q462.667-320 480-320Zm-30-128h61q0-25 6.5-40.5T544-526q18-20 35-40.5t17-53.5q0-42-32.5-71T483-720q-40 0-72.5 23T365-637l55 23q7-22 24.5-35.5T483-663q22 0 36.5 12t14.5 31q0 21-12.5 37.5T492-549q-20 21-31 42t-11 59Z"/></svg>