<svg xmlns="http://www.w3.org/2000/svg" height="40" viewBox="0 -960 960 960" width="40"><path d="M479.843-355.666q51.824 0 88.491-36.01t36.667-88.167q0-51.824-36.51-88.491t-88.334-36.667q-51.824 0-88.157 36.51-36.334 36.51-36.334 88.334 0 51.824 36.01 88.157 36.01 36.334 88.167 36.334Zm.112 83.999q-87.044 0-147.666-60.622t-60.622-147.666q0-87.045 60.622-148.045 60.622-61 147.666-61Q567-689 628-628q61 61 61 148.045 0 87.044-61 147.666t-148.045 60.622ZM73.333-438.334q-17.183 0-29.425-12.271-12.241-12.272-12.241-29.5t12.241-29.728q12.242-12.5 29.425-12.5h93.334q17.466 0 29.9 12.467Q209-497.399 209-479.883q0 17.233-12.433 29.391-12.434 12.158-29.9 12.158H73.333Zm720 0q-17.183 0-29.425-12.271-12.241-12.272-12.241-29.5t12.241-29.728q12.242-12.5 29.425-12.5h93.334q17.466 0 29.9 12.467Q929-497.399 929-479.883q0 17.233-12.433 29.391-12.434 12.158-29.9 12.158h-93.334Zm-313.45-313.333q-17.233 0-29.391-12.241-12.158-12.242-12.158-29.425v-93.334q0-17.466 12.271-29.9Q462.877-929 480.105-929t29.728 12.433q12.5 12.434 12.5 29.9v93.334q0 17.183-12.467 29.425-12.467 12.241-29.983 12.241Zm0 720q-17.233 0-29.391-12.241-12.158-12.242-12.158-29.425v-93.334q0-17.466 12.271-29.9Q462.877-209 480.105-209t29.728 12.433q12.5 12.434 12.5 29.9v93.334q0 17.183-12.467 29.425-12.467 12.241-29.983 12.241ZM229.667-672.333l-52.334-51.334q-12.666-12.667-12.586-29.902.081-17.236 12.517-29.833 11.931-11.931 29.167-11.931 17.235 0 30.569 12L288.333-731Q300-718.091 300-701.212q0 16.879-11.667 28.545-11 13-28.833 12.834-17.833-.167-29.833-12.5Zm494 495-51.334-52.334q-12.333-12-11.833-28.75t12.167-29.916q11.333-12 28.366-11.917 17.033.083 29.967 11.917L783.333-237q12 13.334 11.92 30.569-.081 17.236-11.851 29.167-12.887 12.597-29.978 12.597-17.09 0-29.757-12.666Zm-51.334-495q-12.666-11.5-12.5-28.75.167-17.25 12.5-29.917l51.334-52.333q12.667-12 29.902-11.92 17.236.081 29.833 11.851 11.931 12.887 11.931 29.978 0 17.09-12 29.757L731-672.333Q718.333-660 701.424-660t-29.091-12.333ZM177.264-177.264q-12.597-11.931-12.597-29.167 0-17.235 12.666-30.569l52.334-51.333q11.867-11.667 28.6-11.5 16.733.166 29.545 11.5 12.521 12.333 12.354 29.5-.166 17.166-11.833 29.166L237-177.333q-13.334 12.666-30.569 12.586-17.236-.081-29.167-12.517ZM480-480Z"/></svg>